<svg xmlns="http://www.w3.org/2000/svg" width="428.147" height="35" viewBox="0 0 428.147 35">
  <g id="Congratulations_" data-name="Congratulations！" transform="translate(-476.5 -238)">
    <path id="Congratulations_2" data-name="Congratulations！" d="M-209.25-3.375V-6.75h-3.375v-3.375H-216V-20.25h3.375v-3.375h3.375V-27h13.5v3.375h3.375v3.375h-6.75v-3.375h-6.75v3.375h-3.375v10.125h3.375V-6.75h6.75v-3.375h6.75V-6.75h-3.375v3.375Zm23.625,0V-6.75H-189V-16.875h3.375V-20.25h16.875v3.375h3.375V-6.75h-3.375v3.375Zm3.375-3.375h10.125V-16.875H-182.25ZM-162-3.375V-20.25h20.25v3.375h3.375v13.5h-6.75v-13.5H-155.25v13.5ZM-131.625,0V-3.375h13.5V-6.75h-13.5v-3.375H-135v-6.75h3.375V-20.25h20.25V-3.375h-3.375V0Zm3.375-10.125h10.125v-6.75H-128.25Zm30.375-6.75H-94.5V-13.5h-3.375V-3.375h-6.75V-20.25h6.75Zm13.5-3.375v3.375H-94.5V-20.25Zm6.75,16.875V-6.75H-81v-3.375h3.375V-13.5h13.5v-3.375h-13.5V-20.25H-60.75v3.375h3.375v13.5ZM-74.25-6.75h10.125v-3.375H-74.25Zm30.375,3.375v-13.5h-6.75V-20.25h6.75V-27h6.75v6.75h6.75v3.375h-6.75v13.5Zm20.25,0V-6.75H-27v-13.5h6.75v13.5h10.125v-13.5h6.75V-3.375Zm27,0V-6.75h6.75V-23.625H6.75V-27H16.875V-6.75h6.75v3.375Zm27,0V-6.75H27v-3.375h3.375V-13.5h13.5v-3.375h-13.5V-20.25H47.25v3.375h3.375v13.5ZM33.75-6.75H43.875v-3.375H33.75ZM64.125-3.375v-13.5h-6.75V-20.25h6.75V-27h6.75v6.75h6.75v3.375h-6.75v13.5Zm27-20.25V-27h6.75v3.375Zm-6.75,20.25V-6.75h6.75V-16.875H87.75V-20.25H97.875v13.5h6.75v3.375Zm27,0V-6.75H108V-16.875h3.375V-20.25H128.25v3.375h3.375V-6.75H128.25v3.375ZM114.75-6.75h10.125V-16.875H114.75ZM135-3.375V-20.25h20.25v3.375h3.375v13.5h-6.75v-13.5H141.75v13.5Zm27,0V-6.75h16.875v-3.375h-13.5V-13.5H162v-3.375h3.375V-20.25H182.25v3.375h-13.5V-13.5h13.5v3.375h3.375V-6.75H182.25v3.375Zm39.258-15.9.4,14.094h1.674l.432-14.094ZM202.5-3.213a1.546,1.546,0,0,0-1.161.459,1.449,1.449,0,0,0-.459,1.134,1.546,1.546,0,0,0,.459,1.161A1.655,1.655,0,0,0,202.5,0a1.721,1.721,0,0,0,1.188-.459,1.566,1.566,0,0,0,.459-1.161,1.547,1.547,0,0,0-.459-1.134A1.607,1.607,0,0,0,202.5-3.213Z" transform="translate(696.5 269)" fill="#fff" stroke="#000" stroke-width="8"/>
    <path id="Congratulations_3" data-name="Congratulations！" d="M-209.25-3.375V-6.75h-3.375v-3.375H-216V-20.25h3.375v-3.375h3.375V-27h13.5v3.375h3.375v3.375h-6.75v-3.375h-6.75v3.375h-3.375v10.125h3.375V-6.75h6.75v-3.375h6.75V-6.75h-3.375v3.375Zm23.625,0V-6.75H-189V-16.875h3.375V-20.25h16.875v3.375h3.375V-6.75h-3.375v3.375Zm3.375-3.375h10.125V-16.875H-182.25ZM-162-3.375V-20.25h20.25v3.375h3.375v13.5h-6.75v-13.5H-155.25v13.5ZM-131.625,0V-3.375h13.5V-6.75h-13.5v-3.375H-135v-6.75h3.375V-20.25h20.25V-3.375h-3.375V0Zm3.375-10.125h10.125v-6.75H-128.25Zm30.375-6.75H-94.5V-13.5h-3.375V-3.375h-6.75V-20.25h6.75Zm13.5-3.375v3.375H-94.5V-20.25Zm6.75,16.875V-6.75H-81v-3.375h3.375V-13.5h13.5v-3.375h-13.5V-20.25H-60.75v3.375h3.375v13.5ZM-74.25-6.75h10.125v-3.375H-74.25Zm30.375,3.375v-13.5h-6.75V-20.25h6.75V-27h6.75v6.75h6.75v3.375h-6.75v13.5Zm20.25,0V-6.75H-27v-13.5h6.75v13.5h10.125v-13.5h6.75V-3.375Zm27,0V-6.75h6.75V-23.625H6.75V-27H16.875V-6.75h6.75v3.375Zm27,0V-6.75H27v-3.375h3.375V-13.5h13.5v-3.375h-13.5V-20.25H47.25v3.375h3.375v13.5ZM33.75-6.75H43.875v-3.375H33.75ZM64.125-3.375v-13.5h-6.75V-20.25h6.75V-27h6.75v6.75h6.75v3.375h-6.75v13.5Zm27-20.25V-27h6.75v3.375Zm-6.75,20.25V-6.75h6.75V-16.875H87.75V-20.25H97.875v13.5h6.75v3.375Zm27,0V-6.75H108V-16.875h3.375V-20.25H128.25v3.375h3.375V-6.75H128.25v3.375ZM114.75-6.75h10.125V-16.875H114.75ZM135-3.375V-20.25h20.25v3.375h3.375v13.5h-6.75v-13.5H141.75v13.5Zm27,0V-6.75h16.875v-3.375h-13.5V-13.5H162v-3.375h3.375V-20.25H182.25v3.375h-13.5V-13.5h13.5v3.375h3.375V-6.75H182.25v3.375Zm39.258-15.9.4,14.094h1.674l.432-14.094ZM202.5-3.213a1.546,1.546,0,0,0-1.161.459,1.449,1.449,0,0,0-.459,1.134,1.546,1.546,0,0,0,.459,1.161A1.655,1.655,0,0,0,202.5,0a1.721,1.721,0,0,0,1.188-.459,1.566,1.566,0,0,0,.459-1.161,1.547,1.547,0,0,0-.459-1.134A1.607,1.607,0,0,0,202.5-3.213Z" transform="translate(697.199 269)" fill="#fff"/>
  </g>
</svg>
